#!OML:ASF H:\Terrain\Patient Classification 1\Animal2\Wednesday\Animal2.ASF
:FULLY-SPECIFIED
:DEGREES
1
root 12.9228 18.0439 -22.3142 9.57152 -20.5154 -0.0760282
lowerback 5.44548 -2.43339 2.50447
upperback -8.07548 -3.05807 0.0919218
thorax -11.884 -1.70757 -0.815857
lowerneck 11.32 6.32941 16.9365
upperneck -16.4486 7.88737 -24.1598
head -4.86264 4.7913 -11.4476
rclavicle 5.01993e-014 2.9271e-014
rhumerus -9.28016 -22.1015 -19.0225
rradius 38.9145
rwrist 28.4927
rhand -8.18219 15.4967
rfingers 7.12502
rthumb 17.7335 -13.7147
lclavicle 5.01993e-014 2.9271e-014
lhumerus -9.31966 2.49359 15.9982
lradius 32.7327
lwrist 4.65562
lhand -36.6152 22.914
lfingers 7.12502
lthumb -9.70337 52.6705
rfemur -13.825 -7.08777 21.4697
rtibia 24.421
rfoot -16.4614 7.25554
rtoes 25.8297
lfemur -12.8842 -1.97625 -19.959
ltibia 21.3873
lfoot -14.2378 5.47255
ltoes -25.9337
2
root 12.9195 18.0528 -22.3138 9.36084 -20.6723 -0.101114
lowerback 5.42398 -2.78947 2.49696
upperback -8.22292 -3.5184 0.351471
thorax -12.0415 -1.91651 -0.452327
lowerneck 12.4141 6.39829 16.4892
upperneck -16.4153 8.0053 -24.4138
head -5.03585 4.94758 -11.5338
rclavicle -2.0773e-014 -2.18663e-015
rhumerus -8.94196 -20.9535 -20.9041
rradius 38.7107
rwrist 28.1874
rhand -7.65319 16.0515
rfingers 7.12502
rthumb 18.2425 -13.1131
lclavicle -2.0773e-014 -2.18663e-015
lhumerus -11.7762 1.15547 16.6574
lradius 33.2747
lwrist 5.85994
lhand -35.773 23.7966
lfingers 7.12502
lthumb -8.89079 53.5893
rfemur -13.5305 -7.20085 21.4443
rtibia 24.2729
rfoot -15.7604 7.57836
rtoes 26.7712
lfemur -12.6884 -2.0656 -19.9611
ltibia 21.5564
lfoot -14.0341 5.82026
ltoes -26.7624
3
root 12.9153 18.0612 -22.3127 9.11022 -20.8768 -0.181191
lowerback 5.52419 -2.49167 2.31085
upperback -7.93723 -3.14105 0.235765
thorax -11.7549 -1.71994 -0.540732
lowerneck 12.1516 6.28975 16.316
upperneck -16.5363 7.83954 -23.907
head -5.09976 4.82493 -11.3068
rclavicle -4.5969e-015 -1.63997e-015
rhumerus -10.4536 -21.319 -21.6655
rradius 38.5303
rwrist 28.1607
rhand -7.32865 15.7628
rfingers 7.12502
rthumb 18.5547 -13.3723
lclavicle -4.5969e-015 -1.63997e-015
lhumerus -11.718 0.321808 18.3148
lradius 33.2376
lwrist 7.12
lhand -34.665 24.6322
lfingers 7.12502
lthumb -7.82149 54.4676
rfemur -13.206 -7.27293 21.4629
rtibia 24.206
rfoot -15.3753 8.03924
rtoes 28.0507
lfemur -12.3793 -2.13131 -19.905
ltibia 21.6442
lfoot -13.9833 6.10042
ltoes -26.8206
4
root 12.9099 18.0683 -22.3074 8.86104 -21.1766 -0.372079
lowerback 5.54034 -2.44955 2.30983
upperback -7.70718 -3.06863 0.368728
thorax -11.4905 -1.67416 -0.415893
lowerneck 12.1256 6.39255 15.6655
upperneck -16.4758 7.90194 -23.5688
head -5.1168 4.86523 -11.0586
rclavicle 2.74571e-015 -5.26779e-015
rhumerus -10.9943 -21.1026 -23.0988
rradius 38.2039
rwrist 28.1284
rhand -7.1054 15.2705
rfingers 7.12502
rthumb 18.7694 -13.8439
lclavicle 2.74571e-015 -5.26779e-015
lhumerus -12.7295 0.334565 19.952
lradius 32.9914
lwrist 7.78567
lhand -33.0353 25.206
lfingers 7.12502
lthumb -6.24825 55.0939
rfemur -12.8397 -6.94681 21.5645
rtibia 24.2034
rfoot -15.1294 8.17617
rtoes 28.8345
lfemur -11.9529 -2.20402 -19.7442
ltibia 21.6594
lfoot -13.9107 6.40173
ltoes -26.8105
5
root 12.9099 18.0742 -22.3059 8.56855 -21.4296 -0.423056
lowerback 5.56632 -2.29737 2.27121
upperback -7.39907 -2.86372 0.371905
thorax -11.1463 -1.56708 -0.432568
lowerneck 11.3858 6.43605 15.5059
upperneck -15.9884 7.91199 -23.5224
head -4.84683 4.83707 -10.9278
rclavicle -2.42517e-014 8.94531e-015
rhumerus -11.8869 -21.064 -24.2336
rradius 37.8402
rwrist 27.8709
rhand -6.61936 15.6486
rfingers 7.12502
rthumb 19.2369 -13.4199
lclavicle -2.42517e-014 8.94531e-015
lhumerus -13.399 0.46366 21.8134
lradius 32.907
lwrist 8.20748
lhand -31.4641 26.1569
lfingers 7.12502
lthumb -4.73125 56.0841
rfemur -12.5441 -6.68166 21.5305
rtibia 24.2822
rfoot -14.8834 8.1734
rtoes 29.2637
lfemur -11.5254 -2.25697 -19.7349
ltibia 21.5633
lfoot -13.5675 6.65817
ltoes -27.3902
